<?xml version="1.0" encoding="utf-8"?>
<!-- Generator: Adobe Illustrator 24.2.1, SVG Export Plug-In . SVG Version: 6.00 Build 0)  -->
<svg version="1.1"
	 id="Layer_1" mapsvg:geoViewBox="112.921259 -10.119286 153.638701 -43.643406" xmlns:cc="http://creativecommons.org/ns#" xmlns:dc="http://purl.org/dc/elements/1.1/" xmlns:inkscape="http://www.inkscape.org/namespaces/inkscape" xmlns:mapsvg="http://mapsvg.com" xmlns:rdf="http://www.w3.org/1999/02/22-rdf-syntax-ns#" xmlns:sodipodi="http://sodipodi.sourceforge.net/DTD/sodipodi-0.dtd" xmlns:svg="http://www.w3.org/2000/svg"
	 xmlns="http://www.w3.org/2000/svg" xmlns:xlink="http://www.w3.org/1999/xlink" x="0px" y="0px" viewBox="0 0 442.5 415.6"
	 style="enable-background:new 0 0 442.5 415.6;" xml:space="preserve">
<style type="text/css">
	.st0{fill:#942900;stroke:#000000;stroke-miterlimit:10;}
	.st1{fill:#FFB01F;stroke:#000000;stroke-miterlimit:10;}
	.st2{fill:#F5FFDF;stroke:#000000;stroke-miterlimit:10;}
	.st3{fill:#0056B4;stroke:#000000;stroke-miterlimit:10;}
	.st4{fill:#DFDB00;stroke:#000000;stroke-miterlimit:10;}
	.st5{fill:#D34AFF;stroke:#000000;stroke-miterlimit:10;}
	.st6{fill:#B40051;stroke:#000000;stroke-miterlimit:10;}
	.st7{fill:#00C90B;stroke:#000000;stroke-miterlimit:10;}
	.st8{fill:#FFFFFF;stroke:#000000;stroke-width:2;stroke-miterlimit:10;}
</style>
<path id="AU-NT" class="st0" d="M195.5,27.8v-0.4l0.6-0.8l-1.5-1l0.3-0.8l0.4-0.2l1.5,0l0.1-0.4l-0.1-1l-0.3-0.6l0.3-0.4l1,0
	l1.1,0.7l1.4,0.1l1,0.7l0.6,0.1l4.8-0.3l1.4,0.5l1.8-1.2l1.5,0l0.6,1.2l-0.4,0.8l0.6-0.6l0.1-0.3l-0.2-1.3l0.2-0.4l1.4-0.5l1.1,0.4
	l0.7-0.1l-0.4,0l-0.8-0.6l-0.1-0.5l0.1-3.2l0.6-1l-1.6-1.2l-0.6-0.8l-0.4-0.3l-0.8-0.1l-1.6,0.3l-1.3,0.7l-0.2,0l-1.1-1.1l-0.2-0.7
	l-1.1-0.6l-1,0.1l-0.1-0.1l1.2-1.4l1.2-0.6l1.1,1.1l0.8,1.9l0.4,0l0.3-0.6l-0.5-1.5l-0.5-0.9l0.4-0.1l1,0.4l0.7-0.4l1.8,1.5l0.1,0.5
	l1.7,2.2l0.6,0.1l0.5-0.4l1.1-1.7l0.5,0l0.9,0.9l1.6,3l0.4,0.3l0.7,0.2l0.6-0.4h0.5l0.6,0.8l1.5,0.6l0.7,0l0.5-0.2l1.1-0.6l0.4-0.5
	l1.2,0.2l0.1,0.3l-0.8,0.4l-0.2,0.3l0.1,0.3l0.3,0.3l0.8,0.3l0.6-0.3l0.3-0.4l0.3,0l1.5,1.1l-0.1,0.2l0.1,0.9l0.2,0.2l1.8-0.3
	l0.6,0.2l1,0.1l0.9-0.1l0.8-0.6l1.1-0.1l1.1,1.5l1.4,0.7l0.9,0.8l1.2,0.1l0.4,0.2l-0.1-0.2l0.4-1.1l0.7-0.7l0.6-0.2l0.6,0.3l1.6-0.2
	l0.8-0.7l-0.3-0.1l-0.6,0.4l-0.1-0.3l0.2-0.8l1-0.3l0.7,0l1.4-1.1l0-0.8l0.4,0l0.4,0.4l-0.3,0.5l-1.9,1.6l0.5,0.5l-1.3,1.3l-0.1,0.4
	l0.2,0.5l0.5,0.5l0.6-0.2l0.2-0.5l0.9-0.7l1.5-0.4l-0.9,1.2l0.4,0.6l0.8-0.4l0.2,0.3l-0.9,1.3l0.3,0.7l0.3,0.3l0.4-0.3l0.8-0.1
	l0.1,0.3l0.8-0.1l0.6-0.5l0.8-1.9l-0.3-0.4l-1,0.1l-0.7-0.3l-0.1-0.3l1.1-1.1l1.8-1.2l1.2-0.2l-0.3,0.8l0.7,1.9l0.8,1.1l0.5,0
	l0.4-0.3l0-0.2l-0.7-0.3l0.1-0.2l0.9-0.2l1.1,0.6l1.1,1.5l-1.9,1.3l-0.6,0.7l-1.1,1.8l-0.3,1.3l-1.4-0.5l-0.1,0.7l0.7,1.2l0,1.1
	l-0.2,1l-0.8,1.1l-0.1-0.3l-0.9,0.3l0-2l-0.2-0.2l-0.3,0.1l-0.4,1.2l-0.9,0.8l-0.4,0l-0.1-0.4l-0.5-0.2l-1.1,0.4l-0.7,0.6l-0.4,0.7
	l0,0.3l0.4,0.3l-0.3,0.7l-0.5,0.4l-0.2,1.3l0.5,1.4l0.4,0.2l0.6-0.2l0.5-0.5l-0.1,0.8l-0.3,1.2l-0.7,1.1l-0.3,2l-0.3,0.6l-1.3,0.8
	l-1.4,1.8l-0.9,1.5l0,0.8l-1.4,0.9l-0.4,0l0.7,1.9l0.5,0.7l0.7,0.6l1.4,0.5l2,1.3l1,0.9l2.9,1.5l0.3,0.3l0.3,1.4l0.6,0.7l2.7,1.3
	l1.1,0.9l1,1.1l2.9,0.1l1.1,0.6l2.5,1.8l1.3,0.6l0.6,0l1.1,0.4l1,0.5l1.3,2.1l1.5,1.3l0,0V181l0,0l-73.5,0l0,0l-14.5,0l0,0l-9.7,0.1
	l0,0L175,79.5l0,0v-21l0,0v-5.9l0,0l1,0.3l1,0.9l-0.1,2l0.2,0.2l0.7-0.9l-0.4-2.7l0.1-0.3l1.1,0.3l1.4,0.7l2.2,2.5l0.1,0.5l0.6-0.2
	l-0.7-1l-0.4-0.8l-0.1-0.8l0.2-0.5l0.1-0.8l1.7,0.3l0.7-0.2l0.9-0.8l-1.9,0.6l-1-0.6l-0.8-1l-0.2-0.5l0.4-0.2l0.9-0.1l0.7-0.5l0-0.2
	l-1.2,0.4l-1.3-0.2l-0.9-0.5l-1.1-1l0.1-0.9l0.6-1.2l0.7-0.9l2.6-1.6l0.6-2.8l-0.1-0.5l0.5-2l0.8-0.8l0.1,0.7l0.4,0.2l1.1-0.2
	l1.3-0.9l1.1-1.2l-0.1-0.4l-0.7-0.9l-0.4-0.3l-0.4-0.1l-0.1-0.2l0.1-2l0.2-0.5l0.4-0.2l0.1,0.3l0.3,0.1l0.4-0.1l0.7-0.5l0.3-0.6
	l-0.1-1.5l0.1-0.4l1.7-0.8l1,1.1l1-0.1l-0.9-0.3l-0.3-1.2l0.3-0.7l0.1-0.9l-0.3-0.3l0.5-0.2l1.5,0.5
	C194.2,25.5,195.5,27.8,195.5,27.8z M196.2,20.1l-1.1-0.9l-2-0.8l-2-1.6l-0.8-2.1l-0.6-2.2l0.1-0.8l0.2-0.2l1.5,1.3l0.4,0.7l1.4,0.4
	l1.5-0.4l0.6-0.6l1.1,0.5l1.3-1l0.3,0l0.2,0.8l0.6,0.8l0.1-0.3l-0.4-0.9l0.1-0.6l0.7-0.6l1.6,0.6l1.2,1.6l0.1,0.8l-2.8,2.9l-0.4,0
	l-1.3,0.9L196.2,20.1L196.2,20.1z M260.8,44.9l0.2-0.3l0.5,0l-0.3,1.4l-0.6,0.2l-1.5-0.4l-1.3,0.2l-2.8-0.7l0.4-1.9l-0.1-0.8
	l0.3-0.9l0.3-0.5l1.5-0.3l0.4-0.3l-0.3-0.7l0.9-0.8l0.5,0l-0.1,0.5l-0.4,0.3l0.4,1.2l1,0.2l0.4-0.4l-0.1-0.4l0.2-0.3l0.4-0.1
	l0.3,0.2l0.1,0.4l-1.1,1.1l-0.6,0.4l-0.7,1.5l0,1l0.3,0.3l1.5,0.2L260.8,44.9L260.8,44.9z M191.2,19l-1.8-0.7l-2.5,0.6l-0.6-0.1
	l-0.2-0.3l-0.1-0.3l0.6-1.1l0.5,0.3l0.4,0l0.4-0.4l0-1.5l-0.2-0.5l0.9-1.6l1-0.2l1.6,4l0.8,0.2l0.8,0.7l-0.3,0.5L191.2,19L191.2,19z
	 M256.4,14.8l0-0.5l1.5-2.1l0.9-1.9l0.5-0.3l-0.5,2l-1.8,2.5l-0.2,0.2C256.8,14.7,256.4,14.8,256.4,14.8z M214,13.5l-0.3-0.3
	l-0.4-1.1l-0.3-1.8l0.8-0.3l0.5,1.7l0,1.1L214,13.5L214,13.5z M262.4,63.3l-0.6-0.5l-0.7-1l0.2-0.6l0.6-0.6l0.5,0.6l0.4,1.3
	l-0.3,0.7L262.4,63.3z M253.1,41.4l0-0.4l-0.4-0.6l-0.3,0.2l0.2,0.5h-0.5l-0.2-0.2l0.1-0.9l0.9-0.8l0.5,0.1l0.5,0.7l-0.1,0.7
	l-0.4,0.6L253.1,41.4z M252.9,17.4v-0.5l1-0.8l0.8,0l1.4-1.1l-0.1,0.6l-1.1,0.8C255,16.3,252.9,17.4,252.9,17.4z M256.6,61.3
	l-0.3-0.1l0.2-0.9l0.6-0.4l0.3,0.1l-0.2,1.2C257.3,61.1,256.6,61.3,256.6,61.3z"/>
<path id="AU-WA" class="st1" d="M14.7,181.1l0.2-0.4l0-1.5l-2.4-2.6l-1.3-2.4l-1.2-3l-1.2-0.7l-1-2.8l-0.1-0.5l0.1-1.1L7.3,165
	l-1.4-1.6l-0.4-1.1l-0.1-2.4l0.4-1.1l0.2-1.5l0.9-3l0.8-1.5l1.5-1.2l0.3-1l0.1-1.4l-0.2-1.6l0.6-1.9l-0.1-1.1L9.4,143l-0.9-1.3
	l-0.2-0.9l1.6-3.2l1.5-4.2l1.1-1.6l0.6-0.4l0.8-0.1l0.1,0.3l-0.5,1l-0.5,3.1l0.7,1.5l-0.3,2.2l0.5,0.5l2.4-1l0.3-1.3l0.7-1.7
	l1.8-3.1l0.3-1l3.2-1.8l1.2-0.1l2.1-1l2.2-0.9l1.8-2.2l0.7-0.5l1.4-0.6L33,123l2.5-1.2l0.3-0.7l0.7-0.4l0.7-0.1l1.8-0.6l1.4-0.9
	l1.1-0.9l0.9,0.2l0.5,0.5l0.5,0.1l2.1-1.1l1.1,0.4l0.3,0.4l0.8,0.3l0.8,0.2l0.7,0l3-0.6l1.8-0.8l2.4-2.3l1.2-0.7l0.2,0.3l0.5,0
	l3.4-0.6l1.2,0.1l1.6-0.5l1.6-1.9l0.3-0.9l1.1-0.8l1.2-0.1l2.7,0.7l1.6,0.6l2.2-1.1l4.9-0.7l1.1-0.3l5.9-2.4l1.6-0.8l2.7-2.3
	l2.3-3.1l1.6-3.5l1.5-2l-0.1-0.9l0.4-0.9l0.3-0.3l0.7,0.2l0.5-0.3l0.8-0.6l0.6-0.8l0.7-0.3l2.3-1.8l0.3-0.8l-0.1-0.6l-0.3-0.3
	l-0.9-0.2l-0.5-0.7l-0.1-2.1l-0.6-1.7l0-2.2l0.3-1.3l0.9-1.5l1.3-1.3l0.7-0.5l1.4,0l-0.6-1.2l0.5-0.6l0.3-0.1l0.2,0.2h0.3l1.2-0.4
	l0.1-0.3l-0.3-0.4l0.3-1.1l0.3-0.3l0.6-0.1l0.6-0.6l0.1-0.6l0.2-0.4l0.8-0.3l0.7,0.7l-0.2,0.3l-0.5-0.1l-0.4,1.3l0.7,0.9l0.8,0.5
	l0.2,0.9l2.1,3.9l2.7,4.3l0.2,0.9l0.2-1l-0.4-0.7l0-0.9l0.6-1.8l-0.5-1.5l0.2-0.9l0.7,0l1.4,1.7l0.8,0.7l0.4,0.2l0.3-0.2l-0.4-0.2
	l-0.5-0.6l-0.4-1.6l1-1.2l-0.4-0.2l-0.8,0.3l-0.2-0.1l-0.5-1.1l-1.2-1.3l0.1-1.2l-1.2,0l-0.8-0.8l0.7,0l1.6,0.4l0.7-1.1l0.1-0.6
	l-0.1-0.4l-1.2-0.2l-0.4-0.3l0-1l0.2-0.3l1.7-0.4l0.9,0.7l-0.2,0.5l-0.6,0.2l1.2,1.2l0.6,0.1l0-0.4l0.8-1.1l1.3,0.2l0.6,0.3l0.3,0.2
	l0.4,0.9l0.3,0.2l1.1,0.1l0.6-0.6l1,0.5l1.1,0.1l1.6-0.2l1.2,0.5l0.6-0.3l-0.8-0.1l-1.3-0.6l-0.9-0.2l-0.6,0l-0.9,0.3h-0.7l-0.2-0.2
	l-0.3-1.2l0.6-1.3l0.4-0.1l0.5,0.8l0.8-0.6l-0.1-1l0.3-1.2l1.2-1.2l-0.6-0.3l-0.6,0.2l-0.9,1.5l-0.5,0l-0.9-0.8l-0.3-2.2l0.9-2.1
	l0.3-0.2l1,0.6l0.8-0.4l0.2-0.3l-0.1-2.2l0.5-0.1l2.3,1.2l0.9,0.8l2,1l-1.1-1l-0.1-0.3l0.5-1l-0.2-0.2l-0.9,0l-1.1,0.4l-0.1-0.6
	l0.4-0.6l0.4-0.2l0.3,0.2l0.4-0.7l-0.3-0.1l-1.4,0.9l-0.3,0l-0.3-0.8l0.4-0.5l0.5-0.2l0.6,0.2l0.2-0.1l0.6-0.4l-0.2-0.4l0.6-0.5
	l0.8,1.7l0.2,0.1l0.1-0.5l-0.1-1l1.3,0.8l0,0.4l0.4,0.2l1,0l0.2-0.2l-0.2-0.2l-0.3,0l-0.3-0.3l0.3-0.3l-1.2-0.8l-1.1-0.5l0.4-0.4
	l0.3-0.1l-1.2-1.7l1.2-1.7l1-0.8l0.6,0.2l2.2,0l0.1-1.4l-0.2-1.3l0.1-0.8l0.3-0.2l1.2,0.6l-0.9,4l0.2-0.2l0.7-2.3l1.3,0.7l-0.2,1.2
	l0.2,0.4l0.6,0.4l1-1.1l0.5-0.4l0.3-1.9L144,45l0-0.7l-0.7-1.8l-0.7-0.4l0.5-0.1l0.9,0.1l0.8,0.4l-0.1,0.8l-0.6,0.2l0.4,1.2l0.5,0.1
	l0.6,0.6l0.3-0.4l-0.2-0.6l0.4-1l1.1-0.8l0.8-0.1l-0.5,1.3l1.2,1.6l0.4,0.1l1.1-1.2l0.9-1.7l-0.5-2l1.2-0.5l1.1-0.3l0.7,0.5l0.6,0.8
	l-0.2,0.4l0.8,1l0.3-0.4l0-0.4l0.9,0l2,0.6l1,1.5l1.5,1l3.3,4.5l0.5-0.2l1.8,1.6l0.2,1.1l-0.5,0.8l-0.8,2.6l0.1,1.2l-0.1,2.1
	l-0.6,1.1l0.5-0.3l0.3-0.4l0.4-2.5l0.5,0.2l0.8,0.8l0.3,1.1l0.1-1.1l-0.7-1.3l-0.4-1.4l1.2-1.7l0.2,0l0.3,1.4l1,0l0.1-0.5l-0.4-0.8
	l-0.3-1.5l1.6-0.5l5,1.3l0,0v5.9l0,0v21l0,0l0.1,101.6l0,0l-0.1,70.2l0,0l-2.3,1l-2.6,1.5l-4,1.8l-1.9,0.7l-3,0.6l-4.4,1.7l-2.3,0.4
	l-4.8,0.2l-3.1-0.3l-2.4-0.7l-1.2,0.6l-1.1-0.2l-1.8,1l-3.2,2.6l-0.8,0.3l-1.5,0.3l-3.3,1.8l-1.3,1.1l-1.4,0.9l-3.7,0.6l-1.3,0.5
	l-1,0.8l-0.9,1.2l-1.1,3.3l-0.5,2.1l-1,0.7l-1,1l-0.4,0.7l0,0.4l-0.5,0.5l-1.6,1.1l-1.9-0.1l-0.3,0.1l-0.7,0.9l-0.5,0.4l-0.7,0.2
	l-0.7-1.7l-0.9-0.4l-1.9,0.6l-1.3-0.2l-1.5,0.1l-0.2,0.2l-1.6,0.2l-0.9-0.2l-0.6,0.2l-0.4,0.5l-0.1,0.7l-1.4,0.1l-0.4-0.1l0.2-0.5
	l-0.3-1.1l-0.6-0.8l-0.2-0.1l-0.8,0.1l-0.6,0.6l-0.9,0.3l-2.8-1l-0.7,0l-1.4,0l-3.1,0.5h-2.1l-0.8,0.4l-2.7,0.4l-1.3,0.7l-1.8-0.5
	l-2.7-0.1l-2.1,0.6l-0.8,0.9l-1.3,0.7l-0.6,0.6l-0.9,1.6l-0.2,0.8l-1.5,1.5l-1.3,0.8l-1.4-0.5l-1.8-0.2l-1.9,1.3l-0.2,0.3l0.4,0.4
	l-0.4,0.4l-0.9,0.5l-1.8,0.6l-0.6,0.7l-0.3,0.9l-1.2,0.9l-2.2,1.2l-2.7,0.5l0,0.3L54,295l1.5,0.3l-0.7,0.4l-0.8-0.1l-0.8-0.6
	l-0.6-0.2l-0.7,0l-0.3,0.2l-0.3,0.9l-0.8-0.7l-2.2-0.9l-4.2,0l-0.6,0.5l-0.3,0l-1.6-0.5l-1.3,0.2l-1.5-0.4l-2.6-1.8l-2.6-0.6
	l-0.7-1.5l-1.1-1.3l-1.8-1.8l-1.6-1.1l-2-1l-0.8-0.1l-0.8,0.2l-0.5,0.6l-1.2-1.3l0-1.1l-0.6-4l0-2.3l0.5-2.2l0.5,0.1l0.7,1l1.3,0.5
	l1-0.1l0.9-0.3l0.4-0.2l3.1-4.4l-0.5-3.6l-0.8-4l0.3-0.9l0.8-1l0,0.4l-0.6,0.7l0,0.5l0.4,1.3l0.3,0.5l0.2-0.1l0-0.7l0.5-1.8
	l-0.3-3.2l0.3-1.6l-0.2-1.2l0.1-2.6l-0.4-2.3l-0.3-0.7l-2.6-4.8l-0.8-2.2l-0.6-1.5l-1.5-2.7l-1.3-3.4l0.1-0.3l-0.3-2.5l-0.7-2.5
	l-0.2-0.2l0-4.9l0.4-2.3l-0.5-1.9l-0.3-0.4l-0.2-1.2l-0.6-1.4l-2.3-2.8l-0.3-0.9l-0.1-2l-0.9-1.8l-2.1-3.2l-0.8-0.5l-0.8-1.2
	l-0.6-2.9l0.1-0.9l0.4-0.9l-0.2-1.3l-0.5-1.9l-1.5-3.1l-1.5-2.8l-2.3-3.4l-3.3-3.5l-0.6-1.9l0.5-1l-0.1-1.1l0-0.3l0.2-0.1l0.2,2.3
	l0.3,0.7l0.3-1.9l1.6,2l0.2,0.6l0.1,2.1l0.3,0.7l0.8,1l0.3,0.1l0-0.3l0.7-0.5l0.5,0.1l0.8-1.2l0.1-2.1l-0.8-1l-1.5-1l-1.1-1.1
	l-0.6-2.6l-1.1-1.8l0.2-1l0.7-1.1l0.3,0.2l1,1.8l1.1,1l0.4,1.1L9,181.1l-0.3,0.3l0,1l0.3,0.9l0.6,0.1l0.4-0.4l0.9-1.7l0.6,2.8
	l0.3,0.8l1.2,1.6l1.4-1.1l0.3-1l-0.3-0.5l-0.2-0.9l0.4-2.3L14.7,181.1L14.7,181.1z M3.5,182.8l-0.3-0.3l-1.6-2.4l-0.8-1.6l-0.5-1.9
	l0.1-1.1l0.4-0.6l0.5,0.1l-0.2,0.5l0,0.3l1.3,3.7l1.1,2l0.2,0.8L3.5,182.8z M126.3,59l-0.1-0.3l-0.6-0.5l0.1-0.5l0.3-0.4l0.7-0.3
	l0.9,1.6C127.7,58.5,126.3,59,126.3,59z M27,120.8l-0.4-0.3l-0.3,0.3l-0.1-0.1l0-0.6l1.1-1.5l0.4-0.2l0.1,0.1l0.1,0.8l0,0.3l-0.6,1
	C27.3,120.5,27,120.8,27,120.8z M133,50.1l-0.6-0.3l0.1-0.8l0.3-0.6l0.5-0.5l0.5,0.6l-0.3,1.2l-0.4,0.2
	C133.2,49.8,133,50.1,133,50.1z"/>
<path id="AU-ACT" class="st2" d="M392.5,306.3l-1.3-0.6l-1.4-2.1l-0.3-0.8l0-1.8l0.5-2.6l2.9-2.1l1.3,0.7l0.6,0.7l1,0.4l0.7,0.4
	l-0.5,0.4l-1-0.1l-0.8,0.4l-0.5,0.7l-0.6,2.5l0.2,2.8l-0.1,0.4L392.5,306.3z"/>
<path id="AU-NSW" class="st3" d="M402.7,327.8l-19.3-9.7l-1-0.1l0.9-1.5l0.1-1l-1-2l-0.7-0.9l-0.6-4.4l-1.2-0.8l-1.8-0.8l-0.9,0.4
	l-1.5-0.3l-1,0.2l-1,1.3l-1,0.1l-1.8,0.6l-1.5-0.1L367,308l-1-0.8l-1.1-0.2l-0.7,0.1l-0.4,0.4l-1.1,0.5l-2.3-0.2l-3.1-0.6l-0.8-0.3
	l-1.3-1.2l-0.8-0.6l-0.3,0l-0.8,0.2l-1,0.5l-1-0.1l-0.4-0.3h-1.3l-1.4,0.4l-0.2,0.2l-0.4,1.4l0.2,1.4l-1.9,0.5l-0.4-0.1l-1.3-0.8
	l-2.3-2.7l-0.6-1.3l-0.3-0.3l-0.6-0.2l-1.1-1l-0.8-1.2l-1.9-1l-1.7-1.3l-0.8-0.3l-0.5,0.1l-0.7-0.5l-0.2-0.3l0.3-0.8l-0.4-0.6
	l-0.9-0.2l-0.8-0.5l-0.5-1.1l-0.3-1.6l0.3-1.3l0-0.8l-0.1-0.2l-2.3-1.3l-1.6-0.1l-1.3-0.5l-0.1-0.4l-0.7-0.5l-0.6,0.2l-0.2,0.3
	l-0.4,1.5l-0.5,0.6l-0.9-0.2l-0.4-0.4l0-0.3l-0.6-1.5l-0.9-0.9l0-1.9l-1.5-2.5l-0.9-0.6l-1.3-0.6l-1.7,0.4l-1.6-0.4l-1,0.4l-0.6,0.8
	l-0.5,0.3l-0.2-0.3l-1.2-0.7l-1.8-0.8l-1.9-0.1l-0.3-0.1l-0.5-0.5l0,0l0-63.7l0,0l1.3,0l0,0l21.8,0l0,0h16.9l0,0H359l0,0h32.5
	l0.8-0.4l1.3-1.6l3.5-2.9l1.2-0.3l0.3,0.1l0.2,0.4l1,0.3l3.3-0.3l1.6-0.6l1.5-0.2l0.3,0.1l0.8,0.9l0.8,0.5l1.8,0.1l1.6-0.3l2.7,1.3
	l2.8,2.4l0.1,1.9l0.4,1l0.2,0.1l0.5-0.1l0.5-0.6l1-2l1.9-0.8l0.4,0.8l0.7,0.3l2.1-1l0.4-2l-1-2.2l1-0.8l1.2-0.6l2.2-0.7l0.4-0.3
	l0.2-0.6l0.6-0.5l0.5,0.1l0.7,0.7l1.8,0.4l2-0.2l1.8,0.1l0.8-1.1l1.5-0.3l1.2-0.5l0.8-0.7l0,0l0.8,0.7l0.1,0.8l-0.4,2.7l0.2,1.4
	l0.5,0.7l-0.2,2.5l-1.7,2.2l-1.2,3.5l0.3,0.9l-1.2,6.9l-0.5,2l-2,5.7l-0.1,3.4l0.2,0.6l0.4,0.1l0.2,0.8l-1.1,3.7l-0.2,1.5l-1.1,3.8
	l-1,2l-2.2,2.8l-0.5,1.3l0.3,1.7l-0.1,1.8l-1.9,1.6l-0.8,0.9l-1.7,1l-0.1,0.5l0.3,0.6l-2.1,0.7l-1.5,0.8l-1.5,2.3l-1,2.5l-0.2,0.2
	l-0.5,0l-0.5,0.4l-0.1,0.6l0.5,0.4l-0.4,1.4l-1.2,1.7l-0.5,3.5l-0.3,0.9l-0.4,0.3l-0.6-0.1l-0.9,0.3l0.6,0.2l0.4,0.4l-0.9,1.4
	l-1,0.7l-1,1.4l-1,3l0.4,0.5l-0.5,2.5l-0.7,0.4l-0.2,0.8l0.4,1.1l0.8,0.8l-0.2,0.9l-0.3,0.3l-0.4-0.4l0.1-0.3l-0.1-0.6l-0.3,0
	l-0.7,0.4l-0.1,0.4l0.3,0.7l-0.6,0.7l-1.2,0.6l-0.6,1.1l-0.1,0.6l-0.8,2.3l-0.5,0.9l-2.1,4.6l-0.3,2.3l0,2.9l-0.6,0.8l-0.6,3.2
	l-0.6,2.3l-0.7,1.7l0,2l1.1,1.3l0.1,0.9l0,0.5l-0.3-0.1l-0.5,0.3l0,1.6L402.7,327.8L402.7,327.8z M393.2,305.4l0.1-0.4l-0.2-2.8
	l0.6-2.5l0.5-0.7l0.8-0.4l1,0.1l0.5-0.4l-0.7-0.4l-1-0.4l-0.6-0.7l-1.3-0.7l-2.9,2.1l-0.5,2.6l0,1.9l0.3,0.8l1.5,2.1l0.3,0.2
	l1.1,0.4L393.2,305.4L393.2,305.4z"/>
<path id="AU-SA" class="st4" d="M254.3,283.6l-1.1,1.7l-0.9,0.4l-0.9,1.6l-1.1,0.7l-0.7,1.3l-0.8,2.3l0.3,0.1l0.5-0.1l1.4-1l0.1,0.7
	L251,294l-0.5,0.2l-0.3-0.5l-0.9-1l-0.6-0.4l-0.7,0.1l-0.5,1.1l-0.4,0l-0.4-0.8l-1.4-1.9l-1.6-1.7l-0.9-0.7l-0.4-0.1l-1.1,0.4
	l0.4-1.2l0.6-0.9l0.1,0.8l1.4,1.5l0.6,0.4l1.1-0.4l-1.1-0.4l-0.1-0.4l-0.1-0.3l0.2-0.4l-0.5-2.7l-0.8-2.2l-0.1-1.5l-0.7-1.1l-1.7-2
	l-2.1-1.7l0.3-1.3l-0.1-0.9l-0.5-1.5l-1.1-2.3l-1.2-0.5l-2,0.3l-0.9,0.5l-0.7-0.7l0-0.3l-0.8-2.1l-1.3-3l0.9,0.1l0.4,0.4l0.1,0.6
	l0.7-1l0.2-0.7l-0.2-1.1l-0.8-1.1l-0.7-0.6l-0.3,0l-1.7,0.5l-0.7,0.7l-0.4-0.1l0-1l0.3-0.7l0.6,0.2l0.2-0.3l-1.4-1.9l-1.1-0.6
	l-0.7-0.6l0.1-0.5l-0.7-0.2l-0.3,0.2l-0.2,0.6l-0.9,0.6l-3.5-0.2l-0.3-0.1l-0.8-0.8l-1-0.4l-1.5-1.4l-0.5-0.3l-2.2-0.3l-1,0.2
	l-0.8,0.8l-0.9,0.3l-0.7,0.1l-0.8-0.2l-1.8-1.9l-2.8-2l-4.4-2.3l-2.4-0.9l-0.4,0l-1.1,0.9l-1.8,0.7l-0.6,0.1l-5.8-0.4l-1.2,0
	l-2.3,0.2l-1.1,0.3l-6.6,0.6l-2.5,0.4l0,0l0.1-70.2l0,0l9.7-0.1l0,0l14.5,0l0,0l73.5,0l0,0h32.6l0,36.6l0,0l0,63.7l0,0l-0.3-0.4
	l0,54.4l0,0l-1.3-0.1l-0.9,0.3l-0.8,0l-1.8-1l-1.9-1.9l-1.3-2.6l-1.3-1.9l-0.8-0.5l-0.6,0l-2-2.6l-0.7-1.4l0.3-0.7l0-0.5l-0.5-1.3
	l0.2-1.3l0.8-0.6l0.4-1.1l0-1.8l-0.4-1.4l-1.9-4.6l-3-4l-2-2.1l-1.2-0.9l0.5,0.2l3,2.6l2,2.7l0.8,1.7l-0.1-0.9l-0.5-1.4l-0.4-0.6
	l-1.3-1.5l-3.8-3.6l0-1.2l0.7-0.3l0.8,0.7l-0.1,1.7l0.2,0.2l1-0.1l0.3-1.2l0.1-1.8l-0.2-1.3l-1.6-0.8l-0.8,0.8l-0.6,0.2l-0.6,0
	l-0.5,0.2L283,300l0.1,0.4l0.6,0.2l0.2,0.3l-0.5,0.6l-2.9-0.3l-0.8,0.3l-0.6,0.8l-0.6,0.4l-3.9,0.2l-0.9-0.7l0.6-1.1l1.4-0.7
	l1.7-1.8l0.3-1.8l-0.1-0.5l0.1-0.8l0.5-1.2l-0.4-2.1l0.3-1.2l-0.1-0.6l-0.7-1.1l-1.7-2.1l-0.6-2.2l-1.4-2.4l-0.3,0.1l-0.7,1.5
	l0.3,0.6l-0.2,0.5l-1,1.1l-0.4,1.3l-0.1,2.4l-1.4,4.5l0,1.1l-0.8,0.6l-1.5-0.7l-0.8-0.2l-0.4,0.1l-2,0.8l-0.5,0.8l-0.3,0.2l-1.5-0.2
	l-0.8,0.7l-0.6,0.2l-0.4-0.2l-0.3-0.5l0.4-0.6l0.7-0.7l0.3-0.6l0.2-1.9l0.5-0.8l0.9,0.4l0.9-0.3l1-0.1l0.2,0.3l0.9,0.4l0.5-0.3
	l0.2-0.5l0.5-3.1l-0.2-2.5l0.1-2.4l-0.5-1.6l0.2-0.2h0.5l0.3-0.6l0.5-1.8l0.1-0.9l1.9-2.4l1.2-1.2l0.5-0.1l0.2-0.5l-0.4-1.5
	l-1.1-2.1l0.3-1l0.6-0.4l0.6-0.2l0.7,0l0.3-0.2l-0.1-0.7l-0.3-0.6l-0.6-0.3l-0.6-2.9L271,264l-0.3-1.5l-0.6-0.4l-0.1,2.1l0.3,0.1
	l0.3,0.4l0.1,1.4l-0.4,1.9l-0.6,0l-1.4,0.4l-1.2,1.3l-1.1,2.2l-0.1,1.1l-0.2,0.6l-1.6,3.1l-0.7,0.6l-1.3,0l-0.8-0.5l-0.7,1.1
	l0.2,0.1l-0.4,0.4l-3.1,1.6l-1.8,1.4l-0.6,0.6l-0.1,0.4L254.3,283.6L254.3,283.6z M271.7,303.7l1.6,0.5l0.5,0.7l0,0.7l-0.8,0.7
	l-1.3-0.6l-1.7-0.1l-1.5,0.7l-0.2,0.3l0.1,0.9l-0.3,0.3l-1.4,0.7l-1.1-1.1l-1.4-0.3l-0.4,0.1l-0.1,0.5l-0.3,0.2l-1.3-0.1l-1.4,0.2
	l-2,0.1l-0.4-0.6l-1.5-1.3l0-0.5l0.5-1.5l4-1.2l0.9,0l1-0.2l2.1-1l2.3,0.2l0.6,0.6l0,1.1l0.1,0.2l1,0.1l1.1,0.6l0.6,0L271.7,303.7
	L271.7,303.7z"/>
<path id="AU-VIC" class="st5" d="M398.4,330.8l-1.3,0.6l-1.6,0.2l-5.3,0l-1.8,0.3l-1.8-0.1l-2,0.1l-3.8,1.1l-2.2,1.1l-2.4,1.8
	l-1.8,1.7l-1.7,1.7l-2.6,3.1l-1,0.9l-2.4,0.3l-2.4,0.6l-0.9-0.3l-1,0.1l-0.5,0.2l-0.4,0.6l1.2,2.2l1.3-0.9l0.2-0.8l0.4,0.2l0.2,3.8
	l-0.6,0.8l-0.3,0.2l-0.5-0.2l-0.3-0.5l-0.8-2.1l-1.1-1.4l-0.8-0.4l-0.5,0.2l-0.1,0.4l-1.1-0.1l-0.9-1.8l0.3-0.4l-0.3-0.6l-1-0.1
	l-0.8,0.5l-0.5,0.1l-0.5-0.3l-1.6-1.6l0.2-1.3l1-0.4l0.4-0.7l-0.8-1.7l-0.5-0.3l-2,0.1l-0.5,1.5l-2,2l-1,0.2l-0.4-0.1l-1.5-1.8h1.3
	l1.1-0.5l1.6-2.8l-0.4-1.3l-1.3-2.1l-0.6-0.3l-1,0.5l-1.5,1.4l-1.8,1.3L342,336l-0.2,0.2l0.1,0.5l1.5,0.3l0.8-0.3l0.5-0.4l0.8,0.2
	l0.2,0.4l-0.1,0.6l-0.6,0.9l-0.3,0.2l-0.9-0.2l-1.7,0.4l-0.4,0.2l-3.3,2.2L336,344l-1.2,0.3l-0.4,0.3l-0.2,0.6l-1.4,1l-0.4-0.1
	l-0.7-0.8l-0.6-0.4l-2.3-0.7l-0.5-0.5l-0.9-0.6l-0.8-0.1l-1.8-0.7l-2.9-2.3l-1.7-0.7l-1.2,0.3l-0.2,0.2l-1,0l-1.1-0.6l-1.1-0.9
	l-1.6-0.3l-0.8,0l-0.8,0.2l-0.6,0.5v0.4l0.3,0.6l-0.9,0.2l-1.3-0.6l-0.9-1.1l-1.9-1.8l-1-0.6l-1.5-0.7l0,0l0-54.4l0.3,0.4l0,0
	l0.5,0.5l0.3,0.1l1.9,0.1l1.8,0.8l1.2,0.7l0.2,0.3l0.5-0.3l0.6-0.8l1-0.4l1.6,0.4l1.7-0.4l1.3,0.6l0.9,0.6l1.5,2.5l0,1.9l0.9,0.9
	l0.6,1.5l0,0.3l0.4,0.4l0.9,0.2l0.5-0.6l0.4-1.5l0.2-0.3l0.6-0.2l0.7,0.5l0.1,0.4l1.3,0.5l1.6,0.1l2.3,1.3l0.1,0.2l0,0.8l-0.3,1.3
	l0.3,1.6l0.5,1.1l0.8,0.5l0.9,0.2l0.4,0.6l-0.3,0.8l0.2,0.3l0.7,0.5l0.5-0.1l0.8,0.3l1.7,1.3l1.9,1l0.8,1.2l1.1,1l0.6,0.2l0.3,0.3
	l0.6,1.3l2.3,2.7l1.3,0.8l0.4,0.1l1.9-0.5l-0.2-1.4l0.4-1.4l0.2-0.2l1.4-0.4h1.3l0.4,0.3l1,0.1l1-0.5l0.8-0.2l0.3,0l0.8,0.6l1.3,1.2
	l0.8,0.3l3.1,0.6l2.3,0.2l1.1-0.5l0.4-0.4l0.7-0.1l1.1,0.2l1,0.8l2.4,0.8l1.5,0.1l1.8-0.6l1-0.1l1-1.3l1-0.2l1.5,0.3l0.9-0.4
	l1.8,0.8l1.2,0.8l0.6,4.4l0.7,0.9l1,2l-0.1,1l-0.9,1.5l1,0.1l19.3,9.7l0,0l-0.9,0.5l-1.2,0.1l-1.2,1.9L398.4,330.8L398.4,330.8z
	 M352.5,340.3l-0.8-0.3l-0.1-0.6l0.3-0.9l1.7,0.4l0.4,0.5l-0.1,0.2l-0.7,0L352.5,340.3L352.5,340.3z M352.5,342.3l-0.4-0.5l-0.5-0.2
	l-1.7,0.1l0-0.1l0.8-0.7l1-0.2l0.3,0.2L352.5,342.3L352.5,342.3L352.5,342.3z"/>
<path id="AU-QLD" class="st6" d="M402.7,140.4v0.2l0.7,0.6l-0.6-1.9l-0.7-1.5l0-0.6l0.4-1.1l0.4-0.6l0.5-0.1l0.4,0.2l0.8,1.3
	l0.5,1.4l1.3,0.5l1.7,1.2l1.2,0.6l-0.6-1.5l0-0.9l0.3-0.6l0.8,0.1l0.8,1.1l-0.3,0.7l0.1,0.6l1.5,2.1l-0.7,4.7l0.6,1.3l-0.1,1.7
	l0.7,1.5l0.9,0.5l0.8,0.1l0.3,0.7l0.7,0.6l0.5,1.5l0.8,0.4h0.4l0.5,0.4l1.1,1.4l0.7,0.2l0.6,0.5l-0.2,0.3l0.1,0.3l0.3,0.1l0.5-0.5
	l0-0.6l0.3-0.3l0.5,0.1l1.1,1.3l1.6,1.4l0.8,2.5l1.3,2.2l1.6,1.2l1.5,0.6l0.5,0.6l0.3,0.8l0.1,1.4l1.8,2.9l1.5,0.4l1.1,0.1l0.4,1.8
	l-0.1,1.1l-0.4,0.4l0.1,1.4l0.2,0.7l0.4,0.3l0.3,0.1l0.6,1.4l1.6,0.7l0,0.3l-0.5,1.1l-0.7,2.9l0.2,0.8l0.3,3.6l0.3,0.7l0.1,4.3
	l-0.7,0.2l-0.7,0.9l0.3,1.7l1.2,0.9l0.9,1.1l0.7,2.3l0.9,1.3l0.3,0.9L440,205l0.5,1.4l0.5,0.7l0,0l-0.8,0.7l-1.2,0.5l-1.5,0.3
	l-0.8,1.1l-1.8-0.1l-2,0.2l-1.8-0.4l-0.7-0.7l-0.5-0.1l-0.6,0.5l-0.2,0.6l-0.4,0.3l-2.2,0.7l-1.2,0.6l-1,0.8l1,2.2l-0.4,2l-2.1,1
	l-0.7-0.3l-0.4-0.8l-1.9,0.8l-1,2l-0.5,0.6l-0.5,0.1l-0.2-0.1l-0.4-1l-0.1-1.9l-2.8-2.4l-2.7-1.3l-1.6,0.3l-1.8-0.1l-0.8-0.5
	l-0.8-0.9l-0.3-0.1l-1.5,0.2l-1.6,0.6l-3.3,0.3l-1-0.3l-0.2-0.4l-0.3-0.1l-1.2,0.3l-3.5,2.9l-1.3,1.6l-0.8,0.4h-32.5l0,0h-13.8l0,0
	h-16.9l0,0l-21.8,0l0,0l-1.3,0l0,0l0-36.5h-32.6l0,0V71.5l0,0l2.1,1.7l1,0.4l2.1,0.5l1.7-0.1l0.5,0.4l1.7,0.7l1.8,0.3l1.4,2l0.2,1.5
	l0.5,1.1l0.5,0.5l0.8,0.3l1.1,0.1l1.1,0.7l0.9,0.9l2.1,0.6l0.7,0.4l1,0.9l0.4,0.2l1.2,0.1l2.9-0.5l1.5-0.6l0.9-0.5l1.5-1.2l0.8-0.3
	l0.6-1l0.6-2.4l0.2-1.7l2.6-3.3l1-2.3l0.3-1.6l1.2-3.2l-0.3-1.9l0.6-4.1l1.9-4.3l0.3-1.4l-1.1-2.9l-0.5-3.2l0.2-0.9l0.6-1.6l0.1-1.2
	l-0.2-0.9l-1.1-1.3l-0.1-1.3l0.8-3.3l1.6-3.1l-0.1-0.5l-0.5-0.6l-0.5-1.9l0.1-0.3l0.1-0.3l1.1-0.7l0.4-0.5l0.5-1.5l0.6,0.2l0.4,0.6
	l0,0.9l0.5,0.7l0.1-0.5l-0.6-1.8l-0.5-0.4l-1.3-2l0.3-0.3l-0.2-0.2l-0.7,0l-0.1,0.6l0.3,0.5l-0.6,0.2l-0.4-0.2l0-0.3l1-2.2l1-1.3
	l-0.2-0.4l0.5-1.4l0.5-0.7l0.5-0.2l0.3,1.3l1.2-0.2l0.1-0.3l-0.9-0.9l0-0.5l0.2-1.3l1.7-4.8l0.4-2.4l-0.2-1.9l0.1-0.3l0.4-0.3
	l1.7-0.3l0.6-0.8l0.5-1.2l0.8,0l1,0.5l-0.3,0.5l-0.7,0.7l-0.1,1l0.7-0.9l0.4,0l1.5,1.3l0.5,1l0.8,3.4l-0.3,1.3l0.3,2.3l-0.1,1.3
	l1.2,1l0.8,0.1l0.7-0.3l0.3,0.1l0.7,0.8l-1,1.7l-0.2,0.9l0,1.2l0.6,0.2l0.3-0.1l1,0.5l0.3,0.3l0,1.2l0.5,0.5l0.4,0l0.7,0.6L331,29
	l-0.1,1.2l0.5,0.2l1.1-0.1l0.1,0.2l-0.2,2.4l0.3,2.3l0.1,0.4l0.4,0.4l0.3,0.6l-0.1,1l-0.6,2.6l0.8,2l0.9,1l0.1,1.8l0.4,1.5l0.5,1
	l0.4,0.4l0.8,0.4l1.4,0l1.5-1.2l3.1-1.4l0.5-1l0.4,0.1l0.7,1l-0.1,1.1l0.5,1.4l0.7,0.8l1.6,0.6l0.7,0l0.7,1.5l2.7,1.2l1.2,0.9
	l-0.1,0.7l-0.8,1.5l0,0.7l0.4,0.7l0.1,0.8l-0.4,1.3l0.6,1.2l0.6,2v2l0.5,0.6l0.6,1.3l-0.2,2.3l-0.4,0.6l-0.1,1.2l0.1,0.3l0.6,0.4
	l3.7,4.6l0.4-0.3l1-0.2l0.3,0.3l-0.8,1.6l0,0.3l0.8,1.3l0.9,2l0.6,2.1l0.2,1.6l-0.2,1.1l0.2,1.2l-0.1,0.8l-1,2.1l0.1,1.1l2.2,2.9
	l1.3,0.5l-0.1,1.3l-0.5,1.1l-0.1,1.2l0.1,0.4l0.6,0.8l1,0.7l0.3,0.5l1.3,0.8l1,0.5l1.2,0l1.3,1.3l0.7,0l1.3,0.4l0.7,0.7l1.2,0.3
	l1.9-0.2l0.2-0.3l-0.5-0.8l0.6,0.7l1,1.9l0.4,2.2l0.3,0.5l0.5,0.6l0.6,0.1l0.5-0.1l-0.2-0.9l0.1-0.4l0.7,0l0.3,0.3l0.1,1.3l0.5,0.5
	l0.6,0.3l1.4-0.1l1.3,0.4l0.9,1l-0.4,0.1l0.1,0.3l0.6,0.8l0.9,0.7l0.6-0.3l0-0.7l-0.3-0.3l0.1-0.4l0.8,0.3l1.6,1.5l1,0.2l0.4,0.5
	l0.7,1.9l0.4,0.1l0.3,0.9l-0.6-0.2l-0.5-0.5l-0.4-0.2l-0.5,0.2l-0.8,1l0.7,1.8l1.3,1.4l0.8,0.5l1.2,0.4l1.4,1.1l0.6,0.8l-0.1,0.9
	l0.4,1.4l0.5,0.5l0.4,1.4l0.6,1.1l0.6,0.6l-0.1,2.2l1,3.5l0.8,1.8l0.7,1l0.5,0.4l0,1.2l-0.3,0.5l0.7-0.4l0.6-0.5l0.3-0.4
	L402.7,140.4L402.7,140.4z M436.4,178.6l-0.5-0.1l-0.4-0.6l-0.6-2.1l0.6-1.4l0.7-1.2l0-1l-0.1-0.3l0.5-0.9l1.1-0.9l0.5-1l0.1-0.5
	l-0.1-0.4l-0.6-1.1l-0.2-0.1l0.4-0.8l0.9-0.6l0.1,2.4l0.3,0.6l0.5,0.3l0.1,0.4l-2.6,6.2l-0.5,1.6l0.2,1L436.4,178.6L436.4,178.6z
	 M285.1,73.8l-0.1-0.7l0.3-1.2l0.6-0.9l0.9-0.7l1.9-0.2l0.6-0.3l2.1,0.3l0.1,0.7l-0.5,0.2l-0.7,0.2l-0.5-0.4l-1,0.4l0.2,0.3
	l-0.7,1.1l-1.2,0.5l-1.6,0.3C285.5,73.5,285.1,73.8,285.1,73.8z M416.3,154.7l-0.6-0.6l-0.4-0.9l-0.7-0.7l-0.4-0.9l-0.1-0.8l0.5-0.1
	l1.5,1l0.2,0.4l0.7,1.3l0.1,0.9l-0.3,0.4L416.3,154.7L416.3,154.7z M362.7,93.4l-0.8-0.3l-0.2-1l-0.5-0.7l-0.5-0.2l-0.3-0.5l0.5-0.1
	l1.5,0.7l0.9,1.3l-0.3,0.6L362.7,93.4L362.7,93.4z M439.9,202l-0.2-0.4l0.1-1l0.4-2.4l0.4-0.1l0.8,0.1l-0.7,2.4l-0.2,1.4L439.9,202z
	 M440.1,197.5l-0.7-2v-1.6l0.9-0.5l0.2,0.2l-0.6,2.1L440.1,197.5L440.1,197.5z M318.1,7.2l-0.7-0.6l0-0.7l0.6-0.4l0.5-0.1l0.5,0.8
	l-0.1,0.4l-0.5,0.1L318.1,7.2L318.1,7.2z M319.1,1.7l-0.8-0.3L318.1,1l0.4-0.6l0.6-0.1l0.4,0.2l0.3,0.4L319.1,1.7z M288.2,78.1
	l-0.3-0.7l1.1-1l0.6,0.4l0.2,0.8l-1.3,0L288.2,78.1L288.2,78.1z"/>
<path id="AU-TAS" class="st7" d="M369.5,414.8l-0.9,0.5l-0.2-0.5l-1.4-0.2l-0.9-0.7l-0.9-0.2l-2.4-0.1l-0.2-0.2l-0.2-0.4l-0.3-0.1
	l-1.3,0.4l-0.8-0.3l-1.1-1.8l0.6-0.5l1.2,0.2l0.6,0.3l0.8,0.2l0-1l-0.8-0.6l-0.4,0.8l-2.9-0.4l-0.2-0.2l-1.2-2.4l-1.4-2.3l-0.2-0.2
	l-0.7,0l-0.6-0.9l-0.4-0.9l-0.8-2.8L352,400l-0.5-0.2l-0.7-4.4l0.1-0.8l0.2-0.3l0.3,0.5l1.9,1.5l0.5,2.2l0.9-2.5l-0.6-0.4l-0.5,0
	l-1.9-2.1l-0.2-0.6l0-0.9l-0.2-0.7l-0.7-1.4l-1.4-1.3l-1.1-1.9l-2.9-7.2l0.1-0.5l-0.3-1.5l-0.3-0.6l-0.2-1.4l0.9-0.8l0-1.7l0.7-0.4
	l2.4,0.3l1.4,1l1.7-0.3l0.7,0.6l2.2,0.7l3.6,2.1l3.5,1.6l2.3,0.2l1-0.3l0.9,0.5l0-0.5l0.9-0.9l0.8-0.3l0.6,0.2l0.2,1l0.6,0.3l0.9,0
	l-0.3-0.5l-0.8-0.2l-0.2-0.2l0-0.7l0.5-0.5l1.7-0.8l1.4,0.5l2.3-0.5l0.7,0.6l0.8-0.5l1.1-1.9l0.2-0.1l0.7-0.2l0.3,0.4l1.1,0.5l0.4,0
	l0.7-0.4l0.4-0.6l0.2-0.9l0.2-0.2l0.5,0l0.7,0.3l1.5,1.1l0.6,0.8l0.6,1.4l-0.7,2.5l0.1,0.7l0.5,0.6l0,1.1l-0.5,1.7l0.1,1.2l0.4,1.1
	l-0.5,2.9l0.4,3.2l0.7,1.1l0.1,1.7l-0.6,0.8l-0.4-0.3l0-0.4l0.3-0.4l0.1-1l-0.8-2.1l-0.5-0.8l-1.3,2.5l-0.8,5.9l-0.5,0.5l-0.2,0.8
	l0.1,1.5l-0.8,0.8l-0.4,1.5l0.1,0.2l0.5,0l-0.2-0.4l0.3-0.2l0.7,0.4l0.3,0.5l0.1,1l-0.4,0.3l-0.2,1.3l0.6,1.3l-0.1,0.8l-0.3,0
	l-0.8-0.7l-0.8,0.3l-0.4,0.6l-1-1.2l-0.7-1.5l-0.1-0.7l0.6-1.1l0.4-0.1l0.3,0.2l0,0.4l-0.2,0.4l0.7,0.7l0.9-0.1l0.3-0.3l-0.8-1.4
	l-2.5-1.5l-0.4,0.1l-0.6,0.5l0.2,1l0.3,0.7l-0.3,0.6l-1.1,0.4l-0.3-0.6l0.2-0.1l-0.2-1.5l-1-0.6l0.3,0.9l-0.2,1.5l-0.6,0.8l-0.3,1.1
	l0.2,1l-0.2,1l-0.4,0.2l-0.4,0l-0.9-0.6l-0.8-0.9l-0.1-0.9l-0.2-0.1l-0.2,0.4l0,1l1.4,1.3L371,411l-0.6,0.9l-0.5,1.6l-0.2,1.1
	L369.5,414.8z M382.6,366.1l-1-0.5l-0.3-1.1l0.1-0.3l-1.2-2.3l-1.5-1.4l1.3-1.7l0.9-0.4l2.1,2.9l0.4,0.3l0.8,0.2l0.1,0.4l0.5,2.8
	l0,0.4l-0.3,0.3l-1.4,0.3L382.6,366.1z M336.9,364.2l-0.4-0.3l-0.1-0.7l0.2-0.1v-1l-0.6-0.8l0-0.8l0.2-2.3l0.9-0.6l0.1-0.4l-0.1-0.8
	l0.5-0.1l1,0.6l0.5,0.6l0.1,2.3l0.3,1.5l-0.1,0.8l-0.3,0.7L336.9,364.2z M384.9,369.4l0-0.7l-0.2-0.3l-2.5,0.3l-1-0.4l0-0.5l0.7-0.6
	l0.7,0l0.8,0.2l1.5-0.8l1.5,1.8l0,0.1l-0.8,0.3L384.9,369.4z M373.6,413.2l-0.7-0.3l-0.7,0.1l-0.6-1.2l1.9-2.4l0.7,1.8l-0.5,1.7
	L373.6,413.2z M374.3,409.5l-0.8-1.6l0.7-1.2l0.4,0.7l0.4,1.8l0,0.2L374.3,409.5z M381.4,401.9l0-2l0.6-0.5l0.6,0l0.5,1l0,0.1
	l-0.8,0L381.4,401.9z M347.4,372.6l-0.2-0.1l0-0.7l0.6-0.8l1,1.1L347.4,372.6z"/>
<circle id="canberra" class="st8" cx="393.4" cy="298.3" r="2.5" onclick="weatherCheck(-35.282001,149.128998)"/>
<circle id="sydney" class="st8" cx="414.4" cy="282.2" r="2.5" onclick="weatherCheck(-33.865143,151.209900)"/>
<circle id="melbourne" class="st8" cx="349.6" cy="333.3" r="2.5" onclick="weatherCheck(-37.840935,144.946457)"/>
<circle id="brisbane" class="st8" cx="435.4" cy="197" r="2.5" onclick="weatherCheck(-27.470125, 153.021072)"/>
<circle id="adelaide" class="st8" cx="280.2" cy="299.4" r="2.5"  onclick="weatherCheck(-34.921230, 138.599503)"/>
<circle id="hobart" class="st8" cx="376" cy="404.4" r="2.5" onclick="weatherCheck(-42.880554, 147.324997)"/>
<circle id="perth" class="st8" cx="32.6" cy="260.5" r="2.5" onclick="weatherCheck(-31.953512, 115.857048)"/>
<circle id="darwin" class="st8" cx="195.2" cy="24.4" r="2.5" onclick="weatherCheck(-12.462827, 130.841782)"/>
</svg>
